<?xml version="1.0" encoding="UTF-8" standalone="no"?>
<!DOCTYPE svg PUBLIC "-//W3C//DTD SVG 1.1//EN"
 "http://www.w3.org/Graphics/SVG/1.1/DTD/svg11.dtd">
<!-- Generated by graphviz version 2.26.3 (20100126.1600)
 -->
<!-- Title: controllers_diagram Pages: 1 -->
<svg width="724pt" height="720pt"
 viewBox="0.00 0.00 724.00 720.00" xmlns="http://www.w3.org/2000/svg" xmlns:xlink="http://www.w3.org/1999/xlink">
<g id="graph1" class="graph" transform="scale(1 1) rotate(0) translate(4 716)">
<title>controllers_diagram</title>
<polygon fill="white" stroke="white" points="-4,5 -4,-716 721,-716 721,5 -4,5"/>
<!-- _diagram_info -->
<g id="node1" class="node"><title>_diagram_info</title>
<text text-anchor="start" x="427" y="-363.3" font-family="Times Roman,serif" font-size="13.00">Controllers diagram</text>
<text text-anchor="start" x="427" y="-346.3" font-family="Times Roman,serif" font-size="13.00">Date: Dec 18 2014 &#45; 18:28</text>
<text text-anchor="start" x="427" y="-329.3" font-family="Times Roman,serif" font-size="13.00">Migration version: 20141118141521</text>
<text text-anchor="start" x="427" y="-312.3" font-family="Times Roman,serif" font-size="13.00">Generated by RailRoady 1.2.0</text>
<text text-anchor="start" x="427" y="-295.3" font-family="Times Roman,serif" font-size="13.00">http://railroady.prestonlee.com</text>
</g>
<!-- Api::ApplicationController -->
<g id="node2" class="node"><title>Api::ApplicationController</title>
<polyline fill="none" stroke="black" points="51,-39.5 219,-39.5 "/>
<path fill="none" stroke="black" d="M219,-39.5C225,-39.5 231,-45.5 231,-51.5"/>
<polyline fill="none" stroke="black" points="231,-51.5 231,-127.5 "/>
<path fill="none" stroke="black" d="M231,-127.5C231,-133.5 225,-139.5 219,-139.5"/>
<polyline fill="none" stroke="black" points="219,-139.5 51,-139.5 "/>
<path fill="none" stroke="black" d="M51,-139.5C45,-139.5 39,-133.5 39,-127.5"/>
<polyline fill="none" stroke="black" points="39,-127.5 39,-51.5 "/>
<path fill="none" stroke="black" d="M39,-51.5C39,-45.5 45,-39.5 51,-39.5"/>
<text text-anchor="middle" x="135" y="-122.9" font-family="Times Roman,serif" font-size="14.00">Api::ApplicationController</text>
<polyline fill="none" stroke="black" points="39,-113.5 231,-113.5 "/>
<polyline fill="none" stroke="black" points="39,-89.5 231,-89.5 "/>
<polyline fill="none" stroke="black" points="39,-65.5 231,-65.5 "/>
<text text-anchor="start" x="47" y="-48.9" font-family="Times Roman,serif" font-size="14.00">_layout</text>
</g>
<!-- Api::OrdersController -->
<g id="node3" class="node"><title>Api::OrdersController</title>
<polyline fill="none" stroke="black" points="564,-552.5 703,-552.5 "/>
<path fill="none" stroke="black" d="M703,-552.5C709,-552.5 715,-558.5 715,-564.5"/>
<polyline fill="none" stroke="black" points="715,-564.5 715,-678.5 "/>
<path fill="none" stroke="black" d="M715,-678.5C715,-684.5 709,-690.5 703,-690.5"/>
<polyline fill="none" stroke="black" points="703,-690.5 564,-690.5 "/>
<path fill="none" stroke="black" d="M564,-690.5C558,-690.5 552,-684.5 552,-678.5"/>
<polyline fill="none" stroke="black" points="552,-678.5 552,-564.5 "/>
<path fill="none" stroke="black" d="M552,-564.5C552,-558.5 558,-552.5 564,-552.5"/>
<text text-anchor="middle" x="633.5" y="-673.9" font-family="Times Roman,serif" font-size="14.00">Api::OrdersController</text>
<polyline fill="none" stroke="black" points="552,-664.5 715,-664.5 "/>
<text text-anchor="start" x="560" y="-647.9" font-family="Times Roman,serif" font-size="14.00">create</text>
<text text-anchor="start" x="560" y="-629.9" font-family="Times Roman,serif" font-size="14.00">destroy</text>
<text text-anchor="start" x="560" y="-611.9" font-family="Times Roman,serif" font-size="14.00">update</text>
<polyline fill="none" stroke="black" points="552,-602.5 715,-602.5 "/>
<polyline fill="none" stroke="black" points="552,-578.5 715,-578.5 "/>
<text text-anchor="start" x="560" y="-561.9" font-family="Times Roman,serif" font-size="14.00">_layout</text>
</g>
<!-- ApplicationController -->
<g id="node4" class="node"><title>ApplicationController</title>
<polyline fill="none" stroke="black" points="13,-571.5 150,-571.5 "/>
<path fill="none" stroke="black" d="M150,-571.5C156,-571.5 162,-577.5 162,-583.5"/>
<polyline fill="none" stroke="black" points="162,-583.5 162,-659.5 "/>
<path fill="none" stroke="black" d="M162,-659.5C162,-665.5 156,-671.5 150,-671.5"/>
<polyline fill="none" stroke="black" points="150,-671.5 13,-671.5 "/>
<path fill="none" stroke="black" d="M13,-671.5C7,-671.5 1,-665.5 1,-659.5"/>
<polyline fill="none" stroke="black" points="1,-659.5 1,-583.5 "/>
<path fill="none" stroke="black" d="M1,-583.5C1,-577.5 7,-571.5 13,-571.5"/>
<text text-anchor="middle" x="81.5" y="-654.9" font-family="Times Roman,serif" font-size="14.00">ApplicationController</text>
<polyline fill="none" stroke="black" points="1,-645.5 162,-645.5 "/>
<polyline fill="none" stroke="black" points="1,-621.5 162,-621.5 "/>
<polyline fill="none" stroke="black" points="1,-597.5 162,-597.5 "/>
<text text-anchor="start" x="9" y="-580.9" font-family="Times Roman,serif" font-size="14.00">_layout</text>
</g>
<!-- Web::Admin::ApplicationController -->
<g id="node5" class="node"><title>Web::Admin::ApplicationController</title>
<polyline fill="none" stroke="black" points="431,-153.5 661,-153.5 "/>
<path fill="none" stroke="black" d="M661,-153.5C667,-153.5 673,-159.5 673,-165.5"/>
<polyline fill="none" stroke="black" points="673,-165.5 673,-241.5 "/>
<path fill="none" stroke="black" d="M673,-241.5C673,-247.5 667,-253.5 661,-253.5"/>
<polyline fill="none" stroke="black" points="661,-253.5 431,-253.5 "/>
<path fill="none" stroke="black" d="M431,-253.5C425,-253.5 419,-247.5 419,-241.5"/>
<polyline fill="none" stroke="black" points="419,-241.5 419,-165.5 "/>
<path fill="none" stroke="black" d="M419,-165.5C419,-159.5 425,-153.5 431,-153.5"/>
<text text-anchor="middle" x="546" y="-236.9" font-family="Times Roman,serif" font-size="14.00">Web::Admin::ApplicationController</text>
<polyline fill="none" stroke="black" points="419,-227.5 673,-227.5 "/>
<polyline fill="none" stroke="black" points="419,-203.5 673,-203.5 "/>
<polyline fill="none" stroke="black" points="419,-179.5 673,-179.5 "/>
<text text-anchor="start" x="427" y="-162.9" font-family="Times Roman,serif" font-size="14.00">_layout</text>
</g>
<!-- Web::Admin::BooksController -->
<g id="node6" class="node"><title>Web::Admin::BooksController</title>
<polyline fill="none" stroke="black" points="184,-172.5 379,-172.5 "/>
<path fill="none" stroke="black" d="M379,-172.5C385,-172.5 391,-178.5 391,-184.5"/>
<polyline fill="none" stroke="black" points="391,-184.5 391,-370.5 "/>
<path fill="none" stroke="black" d="M391,-370.5C391,-376.5 385,-382.5 379,-382.5"/>
<polyline fill="none" stroke="black" points="379,-382.5 184,-382.5 "/>
<path fill="none" stroke="black" d="M184,-382.5C178,-382.5 172,-376.5 172,-370.5"/>
<polyline fill="none" stroke="black" points="172,-370.5 172,-184.5 "/>
<path fill="none" stroke="black" d="M172,-184.5C172,-178.5 178,-172.5 184,-172.5"/>
<text text-anchor="middle" x="281.5" y="-365.9" font-family="Times Roman,serif" font-size="14.00">Web::Admin::BooksController</text>
<polyline fill="none" stroke="black" points="172,-356.5 391,-356.5 "/>
<text text-anchor="start" x="180" y="-339.9" font-family="Times Roman,serif" font-size="14.00">create</text>
<text text-anchor="start" x="180" y="-321.9" font-family="Times Roman,serif" font-size="14.00">destroy</text>
<text text-anchor="start" x="180" y="-303.9" font-family="Times Roman,serif" font-size="14.00">edit</text>
<text text-anchor="start" x="180" y="-285.9" font-family="Times Roman,serif" font-size="14.00">index</text>
<text text-anchor="start" x="180" y="-267.9" font-family="Times Roman,serif" font-size="14.00">new</text>
<text text-anchor="start" x="180" y="-249.9" font-family="Times Roman,serif" font-size="14.00">show</text>
<text text-anchor="start" x="180" y="-231.9" font-family="Times Roman,serif" font-size="14.00">update</text>
<polyline fill="none" stroke="black" points="172,-222.5 391,-222.5 "/>
<polyline fill="none" stroke="black" points="172,-198.5 391,-198.5 "/>
<text text-anchor="start" x="180" y="-181.9" font-family="Times Roman,serif" font-size="14.00">_layout</text>
</g>
<!-- Web::Admin::OrdersController -->
<g id="node7" class="node"><title>Web::Admin::OrdersController</title>
<polyline fill="none" stroke="black" points="431,-419.5 631,-419.5 "/>
<path fill="none" stroke="black" d="M631,-419.5C637,-419.5 643,-425.5 643,-431.5"/>
<polyline fill="none" stroke="black" points="643,-431.5 643,-509.5 "/>
<path fill="none" stroke="black" d="M643,-509.5C643,-515.5 637,-521.5 631,-521.5"/>
<polyline fill="none" stroke="black" points="631,-521.5 431,-521.5 "/>
<path fill="none" stroke="black" d="M431,-521.5C425,-521.5 419,-515.5 419,-509.5"/>
<polyline fill="none" stroke="black" points="419,-509.5 419,-431.5 "/>
<path fill="none" stroke="black" d="M419,-431.5C419,-425.5 425,-419.5 431,-419.5"/>
<text text-anchor="middle" x="531" y="-504.9" font-family="Times Roman,serif" font-size="14.00">Web::Admin::OrdersController</text>
<polyline fill="none" stroke="black" points="419,-495.5 643,-495.5 "/>
<text text-anchor="start" x="427" y="-478.9" font-family="Times Roman,serif" font-size="14.00">index</text>
<polyline fill="none" stroke="black" points="419,-469.5 643,-469.5 "/>
<polyline fill="none" stroke="black" points="419,-445.5 643,-445.5 "/>
<text text-anchor="start" x="427" y="-428.9" font-family="Times Roman,serif" font-size="14.00">_layout</text>
</g>
<!-- Web::ApplicationController -->
<g id="node8" class="node"><title>Web::ApplicationController</title>
<polyline fill="none" stroke="black" points="298,-20.5 475,-20.5 "/>
<path fill="none" stroke="black" d="M475,-20.5C481,-20.5 487,-26.5 487,-32.5"/>
<polyline fill="none" stroke="black" points="487,-32.5 487,-108.5 "/>
<path fill="none" stroke="black" d="M487,-108.5C487,-114.5 481,-120.5 475,-120.5"/>
<polyline fill="none" stroke="black" points="475,-120.5 298,-120.5 "/>
<path fill="none" stroke="black" d="M298,-120.5C292,-120.5 286,-114.5 286,-108.5"/>
<polyline fill="none" stroke="black" points="286,-108.5 286,-32.5 "/>
<path fill="none" stroke="black" d="M286,-32.5C286,-26.5 292,-20.5 298,-20.5"/>
<text text-anchor="middle" x="386.5" y="-103.9" font-family="Times Roman,serif" font-size="14.00">Web::ApplicationController</text>
<polyline fill="none" stroke="black" points="286,-94.5 487,-94.5 "/>
<polyline fill="none" stroke="black" points="286,-70.5 487,-70.5 "/>
<polyline fill="none" stroke="black" points="286,-46.5 487,-46.5 "/>
<text text-anchor="start" x="294" y="-29.9" font-family="Times Roman,serif" font-size="14.00">_layout</text>
</g>
<!-- Web::BooksController -->
<g id="node9" class="node"><title>Web::BooksController</title>
<polyline fill="none" stroke="black" points="545,-1.5 688,-1.5 "/>
<path fill="none" stroke="black" d="M688,-1.5C694,-1.5 700,-7.5 700,-13.5"/>
<polyline fill="none" stroke="black" points="700,-13.5 700,-109.5 "/>
<path fill="none" stroke="black" d="M700,-109.5C700,-115.5 694,-121.5 688,-121.5"/>
<polyline fill="none" stroke="black" points="688,-121.5 545,-121.5 "/>
<path fill="none" stroke="black" d="M545,-121.5C539,-121.5 533,-115.5 533,-109.5"/>
<polyline fill="none" stroke="black" points="533,-109.5 533,-13.5 "/>
<path fill="none" stroke="black" d="M533,-13.5C533,-7.5 539,-1.5 545,-1.5"/>
<text text-anchor="middle" x="616.5" y="-104.9" font-family="Times Roman,serif" font-size="14.00">Web::BooksController</text>
<polyline fill="none" stroke="black" points="533,-95.5 700,-95.5 "/>
<text text-anchor="start" x="541" y="-78.9" font-family="Times Roman,serif" font-size="14.00">index</text>
<text text-anchor="start" x="541" y="-60.9" font-family="Times Roman,serif" font-size="14.00">show</text>
<polyline fill="none" stroke="black" points="533,-51.5 700,-51.5 "/>
<polyline fill="none" stroke="black" points="533,-27.5 700,-27.5 "/>
<text text-anchor="start" x="541" y="-10.9" font-family="Times Roman,serif" font-size="14.00">_layout</text>
</g>
<!-- Web::SessionsController -->
<g id="node10" class="node"><title>Web::SessionsController</title>
<polyline fill="none" stroke="black" points="203,-419.5 363,-419.5 "/>
<path fill="none" stroke="black" d="M363,-419.5C369,-419.5 375,-425.5 375,-431.5"/>
<polyline fill="none" stroke="black" points="375,-431.5 375,-545.5 "/>
<path fill="none" stroke="black" d="M375,-545.5C375,-551.5 369,-557.5 363,-557.5"/>
<polyline fill="none" stroke="black" points="363,-557.5 203,-557.5 "/>
<path fill="none" stroke="black" d="M203,-557.5C197,-557.5 191,-551.5 191,-545.5"/>
<polyline fill="none" stroke="black" points="191,-545.5 191,-431.5 "/>
<path fill="none" stroke="black" d="M191,-431.5C191,-425.5 197,-419.5 203,-419.5"/>
<text text-anchor="middle" x="283" y="-540.9" font-family="Times Roman,serif" font-size="14.00">Web::SessionsController</text>
<polyline fill="none" stroke="black" points="191,-531.5 375,-531.5 "/>
<text text-anchor="start" x="199" y="-514.9" font-family="Times Roman,serif" font-size="14.00">create</text>
<text text-anchor="start" x="199" y="-496.9" font-family="Times Roman,serif" font-size="14.00">destroy</text>
<text text-anchor="start" x="199" y="-478.9" font-family="Times Roman,serif" font-size="14.00">new</text>
<polyline fill="none" stroke="black" points="191,-469.5 375,-469.5 "/>
<polyline fill="none" stroke="black" points="191,-445.5 375,-445.5 "/>
<text text-anchor="start" x="199" y="-428.9" font-family="Times Roman,serif" font-size="14.00">_layout</text>
</g>
<!-- Web::UsersController -->
<g id="node11" class="node"><title>Web::UsersController</title>
<polyline fill="none" stroke="black" points="355,-590.5 495,-590.5 "/>
<path fill="none" stroke="black" d="M495,-590.5C501,-590.5 507,-596.5 507,-602.5"/>
<polyline fill="none" stroke="black" points="507,-602.5 507,-698.5 "/>
<path fill="none" stroke="black" d="M507,-698.5C507,-704.5 501,-710.5 495,-710.5"/>
<polyline fill="none" stroke="black" points="495,-710.5 355,-710.5 "/>
<path fill="none" stroke="black" d="M355,-710.5C349,-710.5 343,-704.5 343,-698.5"/>
<polyline fill="none" stroke="black" points="343,-698.5 343,-602.5 "/>
<path fill="none" stroke="black" d="M343,-602.5C343,-596.5 349,-590.5 355,-590.5"/>
<text text-anchor="middle" x="425" y="-693.9" font-family="Times Roman,serif" font-size="14.00">Web::UsersController</text>
<polyline fill="none" stroke="black" points="343,-684.5 507,-684.5 "/>
<text text-anchor="start" x="351" y="-667.9" font-family="Times Roman,serif" font-size="14.00">create</text>
<text text-anchor="start" x="351" y="-649.9" font-family="Times Roman,serif" font-size="14.00">new</text>
<polyline fill="none" stroke="black" points="343,-640.5 507,-640.5 "/>
<polyline fill="none" stroke="black" points="343,-616.5 507,-616.5 "/>
<text text-anchor="start" x="351" y="-599.9" font-family="Times Roman,serif" font-size="14.00">_layout</text>
</g>
</g>
</svg>
