<?xml version="1.0" encoding="UTF-8" standalone="no"?>
<!DOCTYPE svg PUBLIC "-//W3C//DTD SVG 1.1//EN"
 "http://www.w3.org/Graphics/SVG/1.1/DTD/svg11.dtd">
<!-- Generated by graphviz version 2.26.3 (20100126.1600)
 -->
<!-- Title: models_diagram Pages: 1 -->
<svg width="654pt" height="386pt"
 viewBox="0.00 0.00 654.00 386.00" xmlns="http://www.w3.org/2000/svg" xmlns:xlink="http://www.w3.org/1999/xlink">
<g id="graph1" class="graph" transform="scale(1 1) rotate(0) translate(4 382)">
<title>models_diagram</title>
<polygon fill="white" stroke="white" points="-4,5 -4,-382 651,-382 651,5 -4,5"/>
<!-- _diagram_info -->
<g id="node1" class="node"><title>_diagram_info</title>
<text text-anchor="start" x="8" y="-309.8" font-family="Times Roman,serif" font-size="13.00">Models diagram</text>
<text text-anchor="start" x="8" y="-292.8" font-family="Times Roman,serif" font-size="13.00">Date: Dec 18 2014 &#45; 18:28</text>
<text text-anchor="start" x="8" y="-275.8" font-family="Times Roman,serif" font-size="13.00">Migration version: 20141118141521</text>
<text text-anchor="start" x="8" y="-258.8" font-family="Times Roman,serif" font-size="13.00">Generated by RailRoady 1.2.0</text>
<text text-anchor="start" x="8" y="-241.8" font-family="Times Roman,serif" font-size="13.00">http://railroady.prestonlee.com</text>
</g>
<!-- Book -->
<g id="node2" class="node"><title>Book</title>
<polyline fill="none" stroke="black" points="279.5,-181 438.5,-181 "/>
<path fill="none" stroke="black" d="M438.5,-181C444.5,-181 450.5,-187 450.5,-193"/>
<polyline fill="none" stroke="black" points="450.5,-193 450.5,-365 "/>
<path fill="none" stroke="black" d="M450.5,-365C450.5,-371 444.5,-377 438.5,-377"/>
<polyline fill="none" stroke="black" points="438.5,-377 279.5,-377 "/>
<path fill="none" stroke="black" d="M279.5,-377C273.5,-377 267.5,-371 267.5,-365"/>
<polyline fill="none" stroke="black" points="267.5,-365 267.5,-193 "/>
<path fill="none" stroke="black" d="M267.5,-193C267.5,-187 273.5,-181 279.5,-181"/>
<text text-anchor="middle" x="359" y="-360.4" font-family="Times Roman,serif" font-size="14.00">Book</text>
<polyline fill="none" stroke="black" points="267.5,-351 450.5,-351 "/>
<text text-anchor="start" x="275.5" y="-334.4" font-family="Times Roman,serif" font-size="14.00">id :integer</text>
<text text-anchor="start" x="275.5" y="-316.4" font-family="Times Roman,serif" font-size="14.00">title :string</text>
<text text-anchor="start" x="275.5" y="-298.4" font-family="Times Roman,serif" font-size="14.00">author :string</text>
<text text-anchor="start" x="275.5" y="-280.4" font-family="Times Roman,serif" font-size="14.00">image :string</text>
<text text-anchor="start" x="275.5" y="-262.4" font-family="Times Roman,serif" font-size="14.00">description :text</text>
<text text-anchor="start" x="275.5" y="-244.4" font-family="Times Roman,serif" font-size="14.00">url :string</text>
<text text-anchor="start" x="275.5" y="-226.4" font-family="Times Roman,serif" font-size="14.00">publication_state :string</text>
<text text-anchor="start" x="275.5" y="-208.4" font-family="Times Roman,serif" font-size="14.00">created_at :datetime</text>
<text text-anchor="start" x="275.5" y="-190.4" font-family="Times Roman,serif" font-size="14.00">updated_at :datetime</text>
</g>
<!-- Order -->
<g id="node3" class="node"><title>Order</title>
<polyline fill="none" stroke="black" points="387.5,-1 528.5,-1 "/>
<path fill="none" stroke="black" d="M528.5,-1C534.5,-1 540.5,-7 540.5,-13"/>
<polyline fill="none" stroke="black" points="540.5,-13 540.5,-131 "/>
<path fill="none" stroke="black" d="M540.5,-131C540.5,-137 534.5,-143 528.5,-143"/>
<polyline fill="none" stroke="black" points="528.5,-143 387.5,-143 "/>
<path fill="none" stroke="black" d="M387.5,-143C381.5,-143 375.5,-137 375.5,-131"/>
<polyline fill="none" stroke="black" points="375.5,-131 375.5,-13 "/>
<path fill="none" stroke="black" d="M375.5,-13C375.5,-7 381.5,-1 387.5,-1"/>
<text text-anchor="middle" x="458" y="-126.4" font-family="Times Roman,serif" font-size="14.00">Order</text>
<polyline fill="none" stroke="black" points="375.5,-117 540.5,-117 "/>
<text text-anchor="start" x="383.5" y="-100.4" font-family="Times Roman,serif" font-size="14.00">id :integer</text>
<text text-anchor="start" x="383.5" y="-82.4" font-family="Times Roman,serif" font-size="14.00">user_id :integer</text>
<text text-anchor="start" x="383.5" y="-64.4" font-family="Times Roman,serif" font-size="14.00">book_id :integer</text>
<text text-anchor="start" x="383.5" y="-46.4" font-family="Times Roman,serif" font-size="14.00">state :string</text>
<text text-anchor="start" x="383.5" y="-28.4" font-family="Times Roman,serif" font-size="14.00">created_at :datetime</text>
<text text-anchor="start" x="383.5" y="-10.4" font-family="Times Roman,serif" font-size="14.00">updated_at :datetime</text>
</g>
<!-- Book&#45;&gt;Order -->
<g id="edge2" class="edge"><title>Book&#45;&gt;Order</title>
<path fill="none" stroke="#4020c7" d="M409.467,-173.479C412.843,-166.418 416.214,-159.371 419.516,-152.467"/>
<ellipse fill="none" stroke="#4020c7" cx="407.617" cy="-177.347" rx="4.00002" ry="4.00002"/>
<polygon fill="#4020c7" stroke="#4020c7" points="419.655,-152.175 428.029,-145.095 421.813,-147.665 423.97,-143.154 423.97,-143.154 423.97,-143.154 421.813,-147.665 419.91,-141.212 419.655,-152.175 419.655,-152.175"/>
</g>
<!-- User -->
<g id="node4" class="node"><title>User</title>
<polyline fill="none" stroke="black" points="479.5,-208 634.5,-208 "/>
<path fill="none" stroke="black" d="M634.5,-208C640.5,-208 646.5,-214 646.5,-220"/>
<polyline fill="none" stroke="black" points="646.5,-220 646.5,-338 "/>
<path fill="none" stroke="black" d="M646.5,-338C646.5,-344 640.5,-350 634.5,-350"/>
<polyline fill="none" stroke="black" points="634.5,-350 479.5,-350 "/>
<path fill="none" stroke="black" d="M479.5,-350C473.5,-350 467.5,-344 467.5,-338"/>
<polyline fill="none" stroke="black" points="467.5,-338 467.5,-220 "/>
<path fill="none" stroke="black" d="M467.5,-220C467.5,-214 473.5,-208 479.5,-208"/>
<text text-anchor="middle" x="557" y="-333.4" font-family="Times Roman,serif" font-size="14.00">User</text>
<polyline fill="none" stroke="black" points="467.5,-324 646.5,-324 "/>
<text text-anchor="start" x="475.5" y="-307.4" font-family="Times Roman,serif" font-size="14.00">id :integer</text>
<text text-anchor="start" x="475.5" y="-289.4" font-family="Times Roman,serif" font-size="14.00">email :string</text>
<text text-anchor="start" x="475.5" y="-271.4" font-family="Times Roman,serif" font-size="14.00">password_digest :string</text>
<text text-anchor="start" x="475.5" y="-253.4" font-family="Times Roman,serif" font-size="14.00">type :string</text>
<text text-anchor="start" x="475.5" y="-235.4" font-family="Times Roman,serif" font-size="14.00">created_at :datetime</text>
<text text-anchor="start" x="475.5" y="-217.4" font-family="Times Roman,serif" font-size="14.00">updated_at :datetime</text>
</g>
<!-- User&#45;&gt;Order -->
<g id="edge4" class="edge"><title>User&#45;&gt;Order</title>
<path fill="none" stroke="#a90c0e" d="M519.375,-200.329C511.843,-184.581 503.922,-168.019 496.366,-152.22"/>
<ellipse fill="none" stroke="#a90c0e" cx="521.204" cy="-204.154" rx="4.00002" ry="4.00002"/>
<polygon fill="#a90c0e" stroke="#a90c0e" points="496.28,-152.04 496.025,-141.077 494.123,-147.529 491.965,-143.018 491.965,-143.018 491.965,-143.018 494.123,-147.529 487.906,-144.96 496.28,-152.04 496.28,-152.04"/>
</g>
</g>
</svg>
