<?xml version="1.0" encoding="UTF-8" standalone="no"?>
<!DOCTYPE svg PUBLIC "-//W3C//DTD SVG 1.1//EN"
 "http://www.w3.org/Graphics/SVG/1.1/DTD/svg11.dtd">
<!-- Generated by graphviz version 2.26.3 (20100126.1600)
 -->
<!-- Title: models_diagram Pages: 1 -->
<svg width="434pt" height="176pt"
 viewBox="0.00 0.00 434.00 176.00" xmlns="http://www.w3.org/2000/svg" xmlns:xlink="http://www.w3.org/1999/xlink">
<g id="graph1" class="graph" transform="scale(1 1) rotate(0) translate(4 172)">
<title>models_diagram</title>
<polygon fill="white" stroke="white" points="-4,5 -4,-172 431,-172 431,5 -4,5"/>
<!-- _diagram_info -->
<g id="node1" class="node"><title>_diagram_info</title>
<text text-anchor="start" x="8" y="-151.8" font-family="Times Roman,serif" font-size="13.00">Models diagram</text>
<text text-anchor="start" x="8" y="-134.8" font-family="Times Roman,serif" font-size="13.00">Date: Dec 18 2014 &#45; 18:28</text>
<text text-anchor="start" x="8" y="-117.8" font-family="Times Roman,serif" font-size="13.00">Migration version: 20141118141521</text>
<text text-anchor="start" x="8" y="-100.8" font-family="Times Roman,serif" font-size="13.00">Generated by RailRoady 1.2.0</text>
<text text-anchor="start" x="8" y="-83.8" font-family="Times Roman,serif" font-size="13.00">http://railroady.prestonlee.com</text>
</g>
<!-- Book -->
<g id="node2" class="node"><title>Book</title>
<ellipse fill="none" stroke="black" cx="304" cy="-121" rx="36.0624" ry="18.3848"/>
<text text-anchor="middle" x="304" y="-117.4" font-family="Times Roman,serif" font-size="14.00">Book</text>
</g>
<!-- Order -->
<g id="node3" class="node"><title>Order</title>
<ellipse fill="none" stroke="black" cx="348" cy="-19" rx="39.0967" ry="18.3848"/>
<text text-anchor="middle" x="348" y="-15.4" font-family="Times Roman,serif" font-size="14.00">Order</text>
</g>
<!-- Book&#45;&gt;Order -->
<g id="edge2" class="edge"><title>Book&#45;&gt;Order</title>
<path fill="none" stroke="#7d42d0" d="M315.035,-95.4187C321.421,-80.6161 329.462,-61.9752 336.003,-46.8101"/>
<ellipse fill="none" stroke="#7d42d0" cx="313.451" cy="-99.0916" rx="4.00002" ry="4.00002"/>
<polygon fill="#7d42d0" stroke="#7d42d0" points="336.092,-46.6037 344.185,-39.204 338.073,-42.0126 340.053,-37.4216 340.053,-37.4216 340.053,-37.4216 338.073,-42.0126 335.921,-35.6392 336.092,-46.6037 336.092,-46.6037"/>
</g>
<!-- User -->
<g id="node4" class="node"><title>User</title>
<ellipse fill="none" stroke="black" cx="392" cy="-121" rx="33.9411" ry="18.3848"/>
<text text-anchor="middle" x="392" y="-117.4" font-family="Times Roman,serif" font-size="14.00">User</text>
</g>
<!-- User&#45;&gt;Order -->
<g id="edge4" class="edge"><title>User&#45;&gt;Order</title>
<path fill="none" stroke="#c0da72" d="M380.965,-95.4187C374.579,-80.6161 366.538,-61.9752 359.997,-46.8101"/>
<ellipse fill="none" stroke="#c0da72" cx="382.549" cy="-99.0916" rx="4.00002" ry="4.00002"/>
<polygon fill="#c0da72" stroke="#c0da72" points="359.908,-46.6037 360.079,-35.6392 357.927,-42.0126 355.947,-37.4216 355.947,-37.4216 355.947,-37.4216 357.927,-42.0126 351.815,-39.204 359.908,-46.6037 359.908,-46.6037"/>
</g>
</g>
</svg>
